<?xml version="1.0" encoding="UTF-8" standalone="no"?>
<svg xmlns:dc="http://purl.org/dc/elements/1.1/" xmlns:cc="http://creativecommons.org/ns#" xmlns:rdf="http://www.w3.org/1999/02/22-rdf-syntax-ns#" xmlns:svg="http://www.w3.org/2000/svg" xmlns="http://www.w3.org/2000/svg" xmlns:sodipodi="http://sodipodi.sourceforge.net/DTD/sodipodi-0.dtd" xmlns:inkscape="http://www.inkscape.org/namespaces/inkscape" version="1.1" id="svg2" xml:space="preserve" width="235.97333" height="77.933334" viewBox="0 0 235.97333 77.933334" sodipodi:docname="Apache_Geode_logo.eps">
  <metadata id="metadata8">
    <rdf:RDF>
      <cc:Work rdf:about="">
        <dc:format>image/svg+xml</dc:format>
        <dc:type rdf:resource="http://purl.org/dc/dcmitype/StillImage" />
      </cc:Work>
    </rdf:RDF>
  </metadata>
  <defs id="defs6" />
  <sodipodi:namedview pagecolor="#ffffff" bordercolor="#666666" borderopacity="1" objecttolerance="10" gridtolerance="10" guidetolerance="10" inkscape:pageopacity="0" inkscape:pageshadow="2" inkscape:window-width="640" inkscape:window-height="480" id="namedview4" />
  <g id="g10" inkscape:groupmode="layer" inkscape:label="ink_ext_XXXXXX" transform="matrix(1.3333333,0,0,-1.3333333,0,77.933333)">
    <g id="g12" transform="scale(0.1)">
      <path d="m 184.699,534.988 39.61,-125.09 -88.539,96.829 10.339,38.601 38.59,-10.34" style="fill:#0e88d3;fill-opacity:1;fill-rule:nonzero;stroke:none" id="path14" />
      <path d="m 77.7383,448.695 96.8397,-88.531 -125.0897,39.59 -10.3399,38.601 38.5899,10.34" style="fill:#0e88d3;fill-opacity:1;fill-rule:nonzero;stroke:none" id="path16" />
      <path d="M 28.25,320.48 156.379,292.238 28.25,263.98 0,292.23 28.25,320.48" style="fill:#0e88d3;fill-opacity:1;fill-rule:nonzero;stroke:none" id="path18" />
      <path d="M 264.008,28.25 292.25,156.379 320.508,28.25 292.258,0 264.008,28.25" style="fill:#0e88d3;fill-opacity:1;fill-rule:nonzero;stroke:none" id="path20" />
      <path d="M 399.789,49.5 360.18,174.59 448.719,77.7617 438.379,39.1602 399.789,49.5" style="fill:#0e88d3;fill-opacity:1;fill-rule:nonzero;stroke:none" id="path22" />
      <path d="m 506.754,135.797 -96.844,88.527 125.094,-39.59 10.34,-38.597 -38.59,-10.34" style="fill:#0e88d3;fill-opacity:1;fill-rule:nonzero;stroke:none" id="path24" />
      <path d="m 392.48,276.402 -86.078,15.961 86.078,15.981 15.973,-15.973 -15.973,-15.969" style="fill:#0e88d3;fill-opacity:1;fill-rule:nonzero;stroke:none" id="path26" />
      <path d="m 448.695,506.754 -88.531,-96.844 39.59,125.09 38.601,10.344 10.34,-38.59" style="fill:#0e88d3;fill-opacity:1;fill-rule:nonzero;stroke:none" id="path28" />
      <path d="m 25.9648,240.988 87.9062,3.942 -78.0976,-40.543 -23.2109,13.39 13.4023,23.211" style="fill:#0e88d3;fill-opacity:1;fill-rule:nonzero;stroke:none" id="path30" />
      <path d="m 447.188,237.836 -60.391,28.809 66.711,-5.231 8.629,-14.949 -14.949,-8.629" style="fill:#0e88d3;fill-opacity:1;fill-rule:nonzero;stroke:none" id="path32" />
      <path d="m 320.48,556.238 -28.242,-128.129 -28.258,128.129 28.25,28.25 28.25,-28.25" style="fill:#6d399f;fill-opacity:1;fill-rule:nonzero;stroke:none" id="path34" />
      <path d="M 49.5,184.699 174.59,224.309 77.7617,135.77 39.1602,146.109 49.5,184.699" style="fill:#6d399f;fill-opacity:1;fill-rule:nonzero;stroke:none" id="path36" />
      <path d="M 135.797,77.7383 224.324,174.578 184.734,49.4883 146.137,39.1484 135.797,77.7383" style="fill:#6d399f;fill-opacity:1;fill-rule:nonzero;stroke:none" id="path38" />
      <path d="m 371.07,228.398 -66.558,56.86 82.531,-29.199 5.84,-21.813 -21.813,-5.848" style="fill:#6d399f;fill-opacity:1;fill-rule:nonzero;stroke:none" id="path40" />
      <path d="m 556.238,264.008 -128.129,28.242 128.129,28.258 28.25,-28.25 -28.25,-28.25" style="fill:#6d399f;fill-opacity:1;fill-rule:nonzero;stroke:none" id="path42" />
      <path d="m 114.715,497.223 47.371,-74.16 -74.1719,47.359 v 26.801 h 26.8009" style="fill:#6d399f;fill-opacity:1;fill-rule:nonzero;stroke:none" id="path44" />
      <path d="m 114.715,497.223 47.371,-74.16 -74.1719,47.359 v 26.801 h 26.8009" style="fill:#6d399f;fill-opacity:1;fill-rule:nonzero;stroke:none" id="path46" />
      <path d="M 203.492,36.0117 244.031,114.121 240.102,26.1992 216.891,12.8008 203.492,36.0117" style="fill:#6d399f;fill-opacity:1;fill-rule:nonzero;stroke:none" id="path48" />
      <path d="m 497.223,469.773 -74.16,-47.371 47.359,74.172 h 26.801 v -26.801" style="fill:#6d399f;fill-opacity:1;fill-rule:nonzero;stroke:none" id="path50" />
      <path d="m 240.988,558.527 3.942,-87.91 -40.543,78.098 13.39,23.211 23.211,-13.399" style="fill:#3e3836;fill-opacity:1;fill-rule:nonzero;stroke:none" id="path52" />
      <path d="m 36.0117,380.996 78.1093,-40.539 -87.9218,3.93 -13.3984,23.211 23.2109,13.398" style="fill:#3e3836;fill-opacity:1;fill-rule:nonzero;stroke:none" id="path54" />
      <path d="m 87.2656,114.715 74.1604,47.371 -47.36,-74.1719 H 87.2656 v 26.8009" style="fill:#3e3836;fill-opacity:1;fill-rule:nonzero;stroke:none" id="path56" />
      <path d="M 343.5,25.9648 339.559,113.871 380.102,35.7734 366.711,12.5625 343.5,25.9648" style="fill:#3e3836;fill-opacity:1;fill-rule:nonzero;stroke:none" id="path58" />
      <path d="m 469.773,87.2656 -47.371,74.1604 74.172,-47.36 V 87.2656 h -26.801" style="fill:#3e3836;fill-opacity:1;fill-rule:nonzero;stroke:none" id="path60" />
      <path d="m 548.48,203.492 -78.113,40.539 87.922,-3.929 13.399,-23.211 -23.208,-13.399" style="fill:#3e3836;fill-opacity:1;fill-rule:nonzero;stroke:none" id="path62" />
      <path d="m 380.996,548.48 -40.539,-78.113 3.93,87.922 23.211,13.399 13.398,-23.208" style="fill:#3e3836;fill-opacity:1;fill-rule:nonzero;stroke:none" id="path64" />
      <path d="m 683.82,211.074 v 0.539 c 0,55.379 43.43,98.813 102.059,98.813 33.391,0 57,-10.043 77.09,-27.41 l -30.938,-37.461 c -13.57,11.398 -26.883,17.91 -45.883,17.91 -27.41,0 -48.578,-22.801 -48.578,-51.852 v -0.539 c 0,-30.941 21.442,-52.929 51.571,-52.929 13.031,0 22.8,2.71 30.398,7.871 v 23.066 h -37.187 v 38.551 h 87.136 v -85.231 c -20.09,-16.828 -47.777,-29.589 -82.519,-29.589 -59.18,0 -103.149,40.722 -103.149,98.261" style="fill:#3e3836;fill-opacity:1;fill-rule:nonzero;stroke:none" id="path66" />
      <path d="M 927.441,306.621 H 1080.26 V 262.113 H 979.563 v -29.05 h 91.197 V 191.531 H 979.563 V 161.402 H 1081.62 V 116.613 H 927.441 v 190.008" style="fill:#3e3836;fill-opacity:1;fill-rule:nonzero;stroke:none" id="path68" />
      <path d="m 1276.72,211.074 v 0.539 c 0,27.7 -19.54,51.313 -48.59,51.313 -29.05,0 -48.32,-23.352 -48.32,-50.762 v -0.551 c 0,-27.41 19.82,-51.3 48.86,-51.3 28.78,0 48.05,23.351 48.05,50.761 m -150.65,0 v 0.539 c 0,54.571 43.97,98.813 102.6,98.813 58.63,0 102.06,-43.703 102.06,-98.262 v -0.551 c 0,-54.55 -43.97,-98.8 -102.6,-98.8 -58.63,0 -102.06,43.703 -102.06,98.261" style="fill:#3e3836;fill-opacity:1;fill-rule:nonzero;stroke:none" id="path70" />
      <path d="m 1436.51,260.207 v -96.91 h 21.45 c 31.76,0 52.65,17.379 52.65,48.051 v 0.55 c 0,30.399 -20.89,48.309 -52.65,48.309 z m -52.66,46.422 h 73.56 c 67.59,0 106.95,-39.094 106.95,-93.922 v -0.539 c 0,-54.84 -39.9,-95.551 -108.04,-95.551 h -72.47 v 190.012" style="fill:#3e3836;fill-opacity:1;fill-rule:nonzero;stroke:none" id="path72" />
      <path d="m 1615.6,306.621 h 152.82 v -44.508 h -100.7 v -29.05 h 91.2 v -41.532 h -91.2 v -30.129 h 102.06 V 116.613 H 1615.6 v 190.008" style="fill:#3e3836;fill-opacity:1;fill-rule:nonzero;stroke:none" id="path74" />
      <path d="m 777.34,407.508 -21.32,49.34 -21.141,-49.34 z m -31.012,75.238 h 20.09 l 54.27,-124.219 h -22.911 l -12.507,29.778 h -58.321 l -12.691,-29.778 h -22.199 l 54.269,124.219" style="fill:#3e3836;fill-opacity:1;fill-rule:nonzero;stroke:none" id="path76" />
      <path d="m 902.785,417.73 c 16.391,0 26.61,9.161 26.61,22.02 v 0.359 c 0,14.442 -10.399,22.02 -26.61,22.02 H 877.586 V 417.73 Z m -46.871,64.129 h 48.633 c 28.898,0 46.867,-16.379 46.867,-41.23 v -0.348 c 0,-27.66 -22.199,-42.109 -49.34,-42.109 h -24.488 v -39.641 h -21.672 v 123.328" style="fill:#3e3836;fill-opacity:1;fill-rule:nonzero;stroke:none" id="path78" />
      <path d="m 1050.08,407.508 -21.32,49.34 -21.14,-49.34 z m -31.01,75.238 h 20.09 l 54.27,-124.219 h -22.91 l -12.51,29.778 h -58.319 l -12.687,-29.778 h -22.199 l 54.265,124.219" style="fill:#3e3836;fill-opacity:1;fill-rule:nonzero;stroke:none" id="path80" />
      <path d="m 1115.45,419.84 v 0.359 c 0,35.063 26.25,63.781 63.61,63.781 22.72,0 36.47,-7.929 48.27,-19.21 l -13.91,-16.032 c -9.87,9.16 -20.45,15.332 -34.54,15.332 -23.43,0 -40.7,-19.379 -40.7,-43.519 v -0.352 c 0,-24.14 17.09,-43.699 40.7,-43.699 15.15,0 24.84,5.988 35.42,15.859 l 13.92,-14.097 c -12.87,-13.391 -26.96,-21.852 -50.05,-21.852 -35.94,0 -62.72,28.012 -62.72,63.43" style="fill:#3e3836;fill-opacity:1;fill-rule:nonzero;stroke:none" id="path82" />
      <path d="m 1265.03,481.863 h 21.67 v -51.269 h 58.85 v 51.269 h 21.68 v -123.34 h -21.68 v 51.981 h -58.85 v -51.981 h -21.67 v 123.34" style="fill:#3e3836;fill-opacity:1;fill-rule:nonzero;stroke:none" id="path84" />
      <path d="m 1413.03,481.863 h 91.45 V 462.48 h -69.78 v -32.07 h 61.85 v -19.379 h -61.85 v -33.129 h 70.66 v -19.379 h -92.33 v 123.34" style="fill:#3e3836;fill-opacity:1;fill-rule:nonzero;stroke:none" id="path86" />
    </g>
  </g>
</svg>