<?xml version="1.0" encoding="UTF-8" standalone="no"?>
<svg xmlns:svg="http://www.w3.org/2000/svg" xmlns="http://www.w3.org/2000/svg" version="1.1" width="77.933334" height="77.933334" viewBox="0 0 77.933334 77.933334">
  <g id="g10" transform="matrix(1.3333333,0,0,-1.3333333,0,77.933333)">
    <g id="g12" transform="scale(0.1)">
      <path d="m 184.699,534.988 39.61,-125.09 -88.539,96.829 10.339,38.601 38.59,-10.34" style="fill:#0e88d3;fill-opacity:1;fill-rule:nonzero;stroke:none" id="path14" />
      <path d="m 77.7383,448.695 96.8397,-88.531 -125.0897,39.59 -10.3399,38.601 38.5899,10.34" style="fill:#0e88d3;fill-opacity:1;fill-rule:nonzero;stroke:none" id="path16" />
      <path d="M 28.25,320.48 156.379,292.238 28.25,263.98 0,292.23 28.25,320.48" style="fill:#0e88d3;fill-opacity:1;fill-rule:nonzero;stroke:none" id="path18" />
      <path d="M 264.008,28.25 292.25,156.379 320.508,28.25 292.258,0 264.008,28.25" style="fill:#0e88d3;fill-opacity:1;fill-rule:nonzero;stroke:none" id="path20" />
      <path d="M 399.789,49.5 360.18,174.59 448.719,77.7617 438.379,39.1602 399.789,49.5" style="fill:#0e88d3;fill-opacity:1;fill-rule:nonzero;stroke:none" id="path22" />
      <path d="m 506.754,135.797 -96.844,88.527 125.094,-39.59 10.34,-38.597 -38.59,-10.34" style="fill:#0e88d3;fill-opacity:1;fill-rule:nonzero;stroke:none" id="path24" />
      <path d="m 392.48,276.402 -86.078,15.961 86.078,15.981 15.973,-15.973 -15.973,-15.969" style="fill:#0e88d3;fill-opacity:1;fill-rule:nonzero;stroke:none" id="path26" />
      <path d="m 448.695,506.754 -88.531,-96.844 39.59,125.09 38.601,10.344 10.34,-38.59" style="fill:#0e88d3;fill-opacity:1;fill-rule:nonzero;stroke:none" id="path28" />
      <path d="m 25.9648,240.988 87.9062,3.942 -78.0976,-40.543 -23.2109,13.39 13.4023,23.211" style="fill:#0e88d3;fill-opacity:1;fill-rule:nonzero;stroke:none" id="path30" />
      <path d="m 447.188,237.836 -60.391,28.809 66.711,-5.231 8.629,-14.949 -14.949,-8.629" style="fill:#0e88d3;fill-opacity:1;fill-rule:nonzero;stroke:none" id="path32" />
      <path d="m 320.48,556.238 -28.242,-128.129 -28.258,128.129 28.25,28.25 28.25,-28.25" style="fill:#6d399f;fill-opacity:1;fill-rule:nonzero;stroke:none" id="path34" />
      <path d="M 49.5,184.699 174.59,224.309 77.7617,135.77 39.1602,146.109 49.5,184.699" style="fill:#6d399f;fill-opacity:1;fill-rule:nonzero;stroke:none" id="path36" />
      <path d="M 135.797,77.7383 224.324,174.578 184.734,49.4883 146.137,39.1484 135.797,77.7383" style="fill:#6d399f;fill-opacity:1;fill-rule:nonzero;stroke:none" id="path38" />
      <path d="m 371.07,228.398 -66.558,56.86 82.531,-29.199 5.84,-21.813 -21.813,-5.848" style="fill:#6d399f;fill-opacity:1;fill-rule:nonzero;stroke:none" id="path40" />
      <path d="m 556.238,264.008 -128.129,28.242 128.129,28.258 28.25,-28.25 -28.25,-28.25" style="fill:#6d399f;fill-opacity:1;fill-rule:nonzero;stroke:none" id="path42" />
      <path d="m 114.715,497.223 47.371,-74.16 -74.1719,47.359 v 26.801 h 26.8009" style="fill:#6d399f;fill-opacity:1;fill-rule:nonzero;stroke:none" id="path44" />
      <path d="m 114.715,497.223 47.371,-74.16 -74.1719,47.359 v 26.801 h 26.8009" style="fill:#6d399f;fill-opacity:1;fill-rule:nonzero;stroke:none" id="path46" />
      <path d="M 203.492,36.0117 244.031,114.121 240.102,26.1992 216.891,12.8008 203.492,36.0117" style="fill:#6d399f;fill-opacity:1;fill-rule:nonzero;stroke:none" id="path48" />
      <path d="m 497.223,469.773 -74.16,-47.371 47.359,74.172 h 26.801 v -26.801" style="fill:#6d399f;fill-opacity:1;fill-rule:nonzero;stroke:none" id="path50" />
      <path d="m 240.988,558.527 3.942,-87.91 -40.543,78.098 13.39,23.211 23.211,-13.399" style="fill:#3e3836;fill-opacity:1;fill-rule:nonzero;stroke:none" id="path52" />
      <path d="m 36.0117,380.996 78.1093,-40.539 -87.9218,3.93 -13.3984,23.211 23.2109,13.398" style="fill:#3e3836;fill-opacity:1;fill-rule:nonzero;stroke:none" id="path54" />
      <path d="m 87.2656,114.715 74.1604,47.371 -47.36,-74.1719 H 87.2656 v 26.8009" style="fill:#3e3836;fill-opacity:1;fill-rule:nonzero;stroke:none" id="path56" />
      <path d="M 343.5,25.9648 339.559,113.871 380.102,35.7734 366.711,12.5625 343.5,25.9648" style="fill:#3e3836;fill-opacity:1;fill-rule:nonzero;stroke:none" id="path58" />
      <path d="m 469.773,87.2656 -47.371,74.1604 74.172,-47.36 V 87.2656 h -26.801" style="fill:#3e3836;fill-opacity:1;fill-rule:nonzero;stroke:none" id="path60" />
      <path d="m 548.48,203.492 -78.113,40.539 87.922,-3.929 13.399,-23.211 -23.208,-13.399" style="fill:#3e3836;fill-opacity:1;fill-rule:nonzero;stroke:none" id="path62" />
      <path d="m 380.996,548.48 -40.539,-78.113 3.93,87.922 23.211,13.399 13.398,-23.208" style="fill:#3e3836;fill-opacity:1;fill-rule:nonzero;stroke:none" id="path64" />
    </g>
  </g>
</svg>